<?xml version="1.0" encoding="utf-8"?>
<!-- Generator: Adobe Illustrator 18.1.1, SVG Export Plug-In . SVG Version: 6.00 Build 0)  -->
<svg version="1.1" id="Layer_1" xmlns="http://www.w3.org/2000/svg" xmlns:xlink="http://www.w3.org/1999/xlink" x="0px" y="0px"
	 viewBox="0 0 140 78.2" enable-background="new 0 0 140 78.2" xml:space="preserve">
<g>
	<path fill="#986516" stroke="#986516" stroke-width="0.6282" stroke-miterlimit="3.8637" d="M2,1.5c0.3,0.7,0.7,1.8,1,2.7l4.5,17
		h2.9L14.9,4l4.8,17.3h2.9l4.5-17.1c0.3-1,0.7-1.9,1.1-2.6h-2.1C26.1,2.2,26,3,25.7,4l-4,14.8L17,1.5h-2.8L9.4,18.8L5.5,4.4
		C5.2,3.4,5.1,2.3,5.3,1.5H2L2,1.5z"/>
	<path fill="#986516" stroke="#986516" stroke-width="0.6282" stroke-miterlimit="3.8637" d="M30.2,4.8c0.1,0.6,0.3,1.6,0.3,2.7
		v10.4c0,1.1-0.1,2.6-0.3,3.4h10.7v-1.5c-0.7,0.2-1.6,0.5-2.6,0.5h-5.6v-6.7h6.5c0.4,0,1,0,1.4,0.1v-1.3c-0.4,0.1-0.9,0.1-1.4,0.1
		h-6.4V5.9H38c1,0,2.1,0.3,2.8,0.5V4.8H30.2L30.2,4.8z"/>
	<path fill="#986516" stroke="#986516" stroke-width="0.6282" stroke-miterlimit="3.8637" d="M45.3,15.9c0.4,2.8,1.4,4.8,4.8,4.8
		c3.1,0,4.1-1.7,4.1-3.2c0-1.5-0.6-2.6-4.7-3.5C45.7,13.2,44,11.9,44,9c0-2.8,2.7-4.5,5.7-4.5c3.1,0,5.5,1.3,5.9,4.4l-1.8,0.7
		c-0.3-2.2-1.4-4.1-4.1-4.1c-2.6,0-4.1,1.7-4.1,3.2c0,1.6,1.7,2.6,3.9,3.1c3,0.6,6.4,1.5,6.4,4.5c0,3.1-1.7,5.4-5.8,5.4
		c-3.7,0-6.2-1.7-6.7-4.9L45.3,15.9L45.3,15.9z"/>
	<path fill="#986516" stroke="#986516" stroke-width="0.6282" stroke-miterlimit="3.8637" d="M63.6,5.9v13.9c0,0.6-0.1,0.9-0.2,1.4
		h2.8c-0.1-0.4-0.2-0.9-0.2-1.4V5.9H70c0.7,0,1.7,0.1,2.3,0.3V4.8H57.4v1.4c0.7-0.2,1.4-0.3,2.1-0.3H63.6L63.6,5.9z"/>
	<path fill="#986516" stroke="#986516" stroke-width="0.6282" stroke-miterlimit="3.8637" d="M74.5,4.8c0.1,0.6,0.3,1.6,0.3,2.7
		v10.4c0,1.1-0.1,2.6-0.3,3.4h10.7v-1.5c-0.7,0.2-1.6,0.5-2.6,0.5H77v-6.7h6.5c0.4,0,1,0,1.4,0.1v-1.3c-0.4,0.1-0.9,0.1-1.4,0.1H77
		V5.9h5.4c1,0,2.1,0.3,2.8,0.5V4.8H74.5L74.5,4.8z"/>
	<path fill="#986516" stroke="#986516" stroke-width="0.6282" stroke-miterlimit="3.8637" d="M91,11.2v1.4H94c2.2,0,3.7-1.5,3.7-3.4
		c0-1.8-1.1-3.3-3.4-3.3H91V11.2l-2.2,0.1V7.5c0-1.1-0.2-2.1-0.3-2.7h6.2c2.3,0,5,1.1,5,4.3c0,3.1-2.5,3.9-4,4.3
		c1.5,1.9,3.3,4.7,4.5,6.7c0.3,0.5,0.6,0.8,1,1.2h-2.8c-0.1-0.4-0.3-0.8-0.6-1.2c-0.8-1.3-2.3-4.1-3.5-5.6c-0.4-0.6-0.9-0.8-1.5-0.8
		H91v7.6h-2.5c0.2-0.8,0.3-2.2,0.3-3.4v-6.6L91,11.2L91,11.2z"/>
	<path fill="#986516" stroke="#986516" stroke-width="0.6282" stroke-miterlimit="3.8637" d="M116.1,21.2h1.8
		c-0.2-0.8-0.3-2.2-0.3-3.4V7.5c0-1.1,0.2-2.1,0.3-2.7h-1.7c0.1,0.6,0.3,1.6,0.3,2.7v11.1L106.2,4.8h-2.1c0.1,0.6,0.3,1.6,0.3,2.7
		v10.4c0,1.1-0.1,2.6-0.3,3.4h1.7c-0.2-0.8-0.3-2.2-0.3-3.4V7.1L116.1,21.2L116.1,21.2z"/>
</g>
<g>
	<path fill="#986516" stroke="#986516" stroke-width="0.6282" stroke-miterlimit="3.8637" d="M5.5,31.2l0,13.5
		c0,1.4,0.2,3.1,0.4,4.1H3.8c0.2-0.9,0.4-2.7,0.4-4.1V32.2c0-1.3-0.2-2.5-0.4-3.2h3.6l6.9,17.2L21.4,29h3.2c-0.2,0.7-0.4,2-0.4,3.3
		v12.5c0,1.4,0.2,3,0.4,3.9h-3.2c0.2-0.9,0.4-2.6,0.4-3.9v-13l-7.3,16.9h-1.7L5.5,31.2L5.5,31.2z"/>
	<path fill="#986516" stroke="#986516" stroke-width="0.6282" stroke-miterlimit="3.8637" d="M31.6,32.3h-2.4
		c0.1,0.6,0.3,1.6,0.3,2.7v10.4c0,1.1-0.1,2.6-0.3,3.4h2.4c-0.2-0.8-0.3-2.2-0.3-3.4V35C31.3,34,31.5,32.9,31.6,32.3L31.6,32.3z"/>
	<path fill="#986516" stroke="#986516" stroke-width="0.6282" stroke-miterlimit="3.8637" d="M49.2,37.2c-1-1.9-2.3-4.2-5.9-4.2
		C40.1,33,37,35.8,37,40c0,4.6,2,8.3,6.3,8.3c3.8,0,5.4-3,5.9-4.3l1.3,1.3c-1.7,2-3.7,3.9-7.2,3.9c-3.6,0-8.5-2.5-8.5-9.1
		c0-5.3,5-8.1,8.5-8.1c3.8,0,5.7,1.8,7.3,3.9L49.2,37.2L49.2,37.2z"/>
	<path fill="#986516" stroke="#986516" stroke-width="0.6282" stroke-miterlimit="3.8637" d="M72.4,32.3H70c0.1,0.6,0.3,1.6,0.3,2.7
		v10.4c0,1.1-0.1,2.6-0.3,3.4h2.4c-0.2-0.8-0.3-2.2-0.3-3.4V35C72.1,34,72.3,32.9,72.4,32.3L72.4,32.3z"/>
	<path fill="#986516" stroke="#986516" stroke-width="0.6282" stroke-miterlimit="3.8637" d="M63.6,41.1v4.3c0,1.1-0.1,2.6-0.3,3.4
		h2.4c-0.2-0.8-0.3-2.2-0.3-3.4V35c0-1,0.2-2.1,0.3-2.7h-2.4c0.1,0.6,0.3,1.6,0.3,2.7v5h-8.9v-5c0-1,0.2-2.1,0.3-2.7h-2.4
		c0.1,0.6,0.3,1.6,0.3,2.7v10.4c0,1.1-0.1,2.6-0.3,3.4h2.4c-0.2-0.8-0.3-2.2-0.3-3.4v-4.3H63.6L63.6,41.1z"/>
	<path fill="#986516" stroke="#986516" stroke-width="0.6282" stroke-miterlimit="3.8637" d="M88.8,46.1c-0.8,0.9-2.3,2.2-5.1,2.2
		c-4.3,0-6.3-3.7-6.3-8.3c0-4.2,3.1-6.9,6.3-6.9c3.7,0,4.9,2.3,5.9,4.2l1.3-1.3c-1.5-2.1-3.5-3.9-7.3-3.9c-3.5,0-8.5,2.8-8.5,8.1
		c0,6.6,4.9,9.1,8.5,9.1c3.1,0,5.8-1,7.3-2.7v-6.3h-5v0.7h2.9L88.8,46.1L88.8,46.1z"/>
	<path fill="#986516" stroke="#986516" stroke-width="0.6282" stroke-miterlimit="3.8637" d="M100,40.8l-2.2,0l2.4-6.6l2.4,6.6
		L100,40.8l0,1l3,0l2,5.5c0.2,0.5,0.4,1,0.4,1.4h2.6c-0.2-0.4-0.5-0.9-0.7-1.5l-5.5-14.9h-2.1l-5.5,15.1c-0.2,0.5-0.4,0.9-0.7,1.4
		h1.8c0-0.6,0-1,0.2-1.6l2-5.3l2.6,0L100,40.8L100,40.8z"/>
	<path fill="#986516" stroke="#986516" stroke-width="0.6282" stroke-miterlimit="3.8637" d="M123,48.8h1.8
		c-0.2-0.8-0.3-2.2-0.3-3.4V35c0-1.1,0.2-2.1,0.3-2.7H123c0.1,0.6,0.3,1.6,0.3,2.7v11.1l-10.2-13.7H111c0.1,0.6,0.3,1.6,0.3,2.7
		v10.4c0,1.1-0.1,2.6-0.3,3.4h1.7c-0.2-0.8-0.3-2.2-0.3-3.4V34.6L123,48.8L123,48.8z"/>
</g>
<g>
	<path fill="#986516" stroke="#986516" stroke-width="0.6282" stroke-miterlimit="3.8637" d="M43.7,59.9h-2.4
		c0.1,0.6,0.3,1.6,0.3,2.7v10.4c0,1.1-0.1,2.6-0.3,3.4h2.4c-0.2-0.8-0.3-2.2-0.3-3.4V62.5C43.4,61.6,43.6,60.5,43.7,59.9L43.7,59.9z
		"/>
	<path fill="#986516" stroke="#986516" stroke-width="0.6282" stroke-miterlimit="3.8637" d="M79.9,66.6v-5.7h3.2
		c2.3,0,3.4,1.5,3.4,3.3c0,1.9-1.5,3.4-3.7,3.4h-2.9V66.6h-2.2v6.3c0,1.1-0.1,2.6-0.3,3.4h2.5v-7.6h1.9c0.6,0,1,0.3,1.5,0.8
		c1.2,1.5,2.7,4.3,3.5,5.6c0.3,0.4,0.5,0.8,0.6,1.2h2.8c-0.4-0.4-0.7-0.7-1-1.2c-1.1-1.9-2.9-4.8-4.5-6.7c1.5-0.3,4-1.1,4-4.3
		c0-3.1-2.7-4.3-5-4.3h-6.2c0.1,0.6,0.3,1.6,0.3,2.7v4.1H79.9L79.9,66.6z"/>
	<path fill="#986516" stroke="#986516" stroke-width="0.6282" stroke-miterlimit="3.8637" d="M93.1,71c0.4,2.8,1.4,4.8,4.8,4.8
		c3.1,0,4.1-1.7,4.1-3.2c0-1.5-0.6-2.6-4.7-3.5c-3.8-0.9-5.5-2.1-5.5-5.1c0-2.8,2.7-4.5,5.7-4.5c3.1,0,5.5,1.3,5.9,4.4l-1.8,0.7
		c-0.3-2.2-1.4-4.1-4.1-4.1c-2.6,0-4.1,1.7-4.1,3.2c0,1.6,1.7,2.6,3.9,3.1c3,0.6,6.4,1.5,6.4,4.5c0,3.1-1.7,5.4-5.8,5.4
		c-3.7,0-6.2-1.7-6.7-4.9L93.1,71L93.1,71z"/>
	<path fill="#986516" stroke="#986516" stroke-width="0.6282" stroke-miterlimit="3.8637" d="M109.6,59.9h-2.4
		c0.1,0.6,0.3,1.6,0.3,2.7v10.4c0,1.1-0.1,2.6-0.3,3.4h2.4c-0.2-0.8-0.3-2.2-0.3-3.4V62.5C109.2,61.6,109.4,60.5,109.6,59.9
		L109.6,59.9z"/>
	<path fill="#986516" stroke="#986516" stroke-width="0.6282" stroke-miterlimit="3.8637" d="M127.2,61.5l4.4,6.1l4.9-6.5
		c0.2-0.3,0.5-0.9,0.6-1.2h2c-0.6,0.7-1,1.3-1.3,1.7l-5.5,7.6v5.6c0,0.6,0.2,1.1,0.3,1.6h-2.6c0.2-0.5,0.3-1.1,0.3-1.6V69l-5.7-8.1
		h-5.2v13.9c0,0.5,0.1,1,0.2,1.4h-2.8c0.2-0.5,0.2-0.8,0.2-1.4V60.9h-4c-0.7,0-1.4,0.1-2.1,0.3v-1.4h15.5
		C126.4,60.3,126.7,60.7,127.2,61.5L127.2,61.5z"/>
	<path fill="#986516" stroke="#986516" stroke-width="0.6282" stroke-miterlimit="3.8637" d="M63.4,59.9c0.1,0.6,0.3,1.6,0.3,2.7
		v10.4c0,1.1-0.1,2.6-0.3,3.4h10.7v-1.5c-0.7,0.2-1.6,0.5-2.6,0.5h-5.6v-6.7h6.5c0.4,0,1,0,1.4,0.1v-1.3c-0.4,0.1-0.9,0.1-1.4,0.1
		h-6.4v-6.7h5.4c1,0,2.1,0.3,2.8,0.5v-1.5H63.4L63.4,59.9z"/>
	<path fill="#986516" stroke="#986516" stroke-width="0.6282" stroke-miterlimit="3.8637" d="M3.8,56.5c0.2,1,0.3,2,0.3,3.1
		c0,1.2,0,10,0,10c0,3.4,1.9,7.1,7.7,7.1c5.5,0,7.2-4.9,7.2-7.2v-9.9c0-1.2,0.2-2.3,0.4-3.2h-2.3c0.2,0.9,0.3,2,0.3,3.1v9.6
		c0,2.5-1.3,6.3-5.6,6.3c-4,0-5.1-3.1-5.1-5.7V59.6c0-1,0.1-2,0.4-3.1H3.8L3.8,56.5z"/>
	<path fill="#986516" stroke="#986516" stroke-width="0.6282" stroke-miterlimit="3.8637" d="M46.4,59.9c0.4,0.6,0.8,1.4,1.1,2.2
		l5,14.2h2.6l5.3-14.1c0.3-0.9,0.8-1.5,1.3-2.3h-2.3c-0.1,0.8-0.2,1.4-0.4,2l-4.8,12.8l-4.5-12.6c-0.3-0.8-0.4-1.4-0.5-2.2H46.4
		L46.4,59.9z"/>
	<path fill="#986516" stroke="#986516" stroke-width="0.6282" stroke-miterlimit="3.8637" d="M35.7,76.3h1.8
		c-0.2-0.8-0.3-2.2-0.3-3.4V62.5c0-1.1,0.2-2.1,0.3-2.7h-1.7c0.1,0.6,0.3,1.6,0.3,2.7v11.1L25.8,59.9h-2.1c0.1,0.6,0.3,1.6,0.3,2.7
		v10.4c0,1.1-0.1,2.6-0.3,3.4h1.7c-0.2-0.8-0.3-2.2-0.3-3.4V62.1L35.7,76.3L35.7,76.3z"/>
</g>
</svg>
