<?xml version="1.0" encoding="utf-8"?>
<!-- Generator: Adobe Illustrator 18.1.1, SVG Export Plug-In . SVG Version: 6.00 Build 0)  -->
<svg version="1.1" id="Layer_1" xmlns="http://www.w3.org/2000/svg" xmlns:xlink="http://www.w3.org/1999/xlink" x="0px" y="0px"
	 viewBox="0 0 223 14.2" enable-background="new 0 0 223 14.2" xml:space="preserve">
<g>
	<path fill="#CB983E" stroke="#CB983E" stroke-width="0.35" stroke-miterlimit="3.8637" d="M1.5,1.7c0.2,0.4,0.4,1,0.6,1.5l2.5,9.5
		h1.6L8.7,3l2.7,9.6H13l2.5-9.5c0.2-0.6,0.4-1,0.6-1.4H15c0,0.4,0,0.8-0.2,1.4l-2.2,8.2L9.9,1.7H8.3l-2.6,9.6l-2.2-8
		C3.4,2.8,3.3,2.1,3.4,1.7H1.5L1.5,1.7z"/>
	<path fill="#CB983E" stroke="#CB983E" stroke-width="0.35" stroke-miterlimit="3.8637" d="M17.2,3.5c0.1,0.3,0.2,0.9,0.2,1.5v5.8
		c0,0.6-0.1,1.4-0.2,1.9h5.9v-0.8c-0.4,0.1-0.9,0.3-1.4,0.3h-3.1V8.4h3.6c0.2,0,0.6,0,0.8,0.1V7.7c-0.2,0-0.5,0.1-0.8,0.1h-3.6V4.1
		h3c0.6,0,1.2,0.1,1.6,0.3V3.5H17.2L17.2,3.5z"/>
	<path fill="#CB983E" stroke="#CB983E" stroke-width="0.35" stroke-miterlimit="3.8637" d="M25.7,9.7c0.2,1.5,0.8,2.7,2.7,2.7
		c1.7,0,2.3-0.9,2.3-1.8c0-0.8-0.3-1.4-2.6-1.9c-2.1-0.5-3-1.2-3-2.8c0-1.6,1.5-2.5,3.2-2.5c1.7,0,3.1,0.7,3.3,2.5l-1,0.4
		c-0.1-1.2-0.8-2.3-2.3-2.3c-1.4,0-2.3,1-2.3,1.8c0,0.9,1,1.4,2.2,1.7c1.7,0.3,3.6,0.8,3.6,2.5c0,1.7-1,3-3.2,3
		c-2,0-3.5-0.9-3.8-2.7L25.7,9.7L25.7,9.7z"/>
	<path fill="#CB983E" stroke="#CB983E" stroke-width="0.35" stroke-miterlimit="3.8637" d="M35.9,4.1v7.8c0,0.3,0,0.5-0.1,0.8h1.6
		c-0.1-0.2-0.1-0.5-0.1-0.8V4.1h2.3c0.4,0,0.9,0.1,1.3,0.2V3.5h-8.3v0.8c0.4-0.1,0.8-0.2,1.2-0.2H35.9L35.9,4.1z"/>
	<path fill="#CB983E" stroke="#CB983E" stroke-width="0.35" stroke-miterlimit="3.8637" d="M42,3.5C42,3.9,42.1,4.4,42.1,5v5.8
		c0,0.6-0.1,1.4-0.2,1.9h5.9v-0.8c-0.4,0.1-0.9,0.3-1.4,0.3h-3.1V8.4h3.6c0.2,0,0.6,0,0.8,0.1V7.7c-0.2,0-0.5,0.1-0.8,0.1h-3.6V4.1
		h3c0.6,0,1.2,0.1,1.6,0.3V3.5H42L42,3.5z"/>
	<path fill="#CB983E" stroke="#CB983E" stroke-width="0.35" stroke-miterlimit="3.8637" d="M51.2,7.1v0.8h1.6c1.2,0,2.1-0.8,2.1-1.9
		c0-1-0.6-1.8-1.9-1.8h-1.8V7.1l-1.2,0V5c0-0.6-0.1-1.2-0.2-1.5h3.5c1.3,0,2.8,0.6,2.8,2.4c0,1.7-1.4,2.2-2.2,2.4
		c0.9,1,1.9,2.6,2.5,3.7c0.2,0.3,0.3,0.4,0.6,0.7h-1.5c-0.1-0.2-0.2-0.4-0.3-0.7c-0.4-0.7-1.3-2.3-2-3.1c-0.3-0.3-0.5-0.5-0.8-0.5
		h-1.1v4.3h-1.4c0.1-0.4,0.2-1.2,0.2-1.9V7.1L51.2,7.1L51.2,7.1z"/>
	<path fill="#CB983E" stroke="#CB983E" stroke-width="0.35" stroke-miterlimit="3.8637" d="M65.1,12.7h1c-0.1-0.4-0.2-1.2-0.2-1.9V5
		c0-0.6,0.1-1.2,0.2-1.5h-1c0.1,0.3,0.2,0.9,0.2,1.5v6.2l-5.7-7.6h-1.2c0.1,0.3,0.2,0.9,0.2,1.5v5.8c0,0.6-0.1,1.4-0.2,1.9h1
		c-0.1-0.4-0.2-1.2-0.2-1.9v-6L65.1,12.7L65.1,12.7z"/>
	<path fill="#CB983E" stroke="#CB983E" stroke-width="0.35" stroke-miterlimit="3.8637" d="M73.9,2.9l0,7.5c0,0.8,0.1,1.7,0.2,2.3
		H73c0.1-0.5,0.2-1.5,0.2-2.3v-7c0-0.7-0.1-1.4-0.2-1.8h2l3.8,9.6l4-9.6h1.8c-0.1,0.4-0.2,1.1-0.2,1.9v7c0,0.8,0.1,1.7,0.2,2.2h-1.8
		c0.1-0.5,0.2-1.4,0.2-2.2V3.2l-4,9.4H78L73.9,2.9L73.9,2.9z"/>
	<path fill="#CB983E" stroke="#CB983E" stroke-width="0.35" stroke-miterlimit="3.8637" d="M88.5,3.5h-1.4c0.1,0.3,0.2,0.9,0.2,1.5
		v5.8c0,0.6-0.1,1.4-0.2,1.9h1.3c-0.1-0.4-0.2-1.2-0.2-1.9V5C88.3,4.5,88.4,3.9,88.5,3.5L88.5,3.5z"/>
	<path fill="#CB983E" stroke="#CB983E" stroke-width="0.35" stroke-miterlimit="3.8637" d="M98.3,6.3c-0.6-1-1.3-2.3-3.3-2.3
		c-1.8,0-3.5,1.5-3.5,3.9c0,2.6,1.1,4.6,3.5,4.6c2.1,0,3-1.7,3.3-2.4l0.7,0.7c-0.9,1.1-2,2.2-4,2.2c-2,0-4.8-1.4-4.8-5.1
		c0-3,2.8-4.5,4.7-4.5c2.1,0,3.2,1,4,2.2L98.3,6.3L98.3,6.3z"/>
	<path fill="#CB983E" stroke="#CB983E" stroke-width="0.35" stroke-miterlimit="3.8637" d="M111.2,3.5h-1.4c0.1,0.3,0.2,0.9,0.2,1.5
		v5.8c0,0.6-0.1,1.4-0.2,1.9h1.3c-0.1-0.4-0.2-1.2-0.2-1.9V5C111,4.5,111.1,3.9,111.2,3.5L111.2,3.5z"/>
	<path fill="#CB983E" stroke="#CB983E" stroke-width="0.35" stroke-miterlimit="3.8637" d="M106.3,8.4v2.4c0,0.6-0.1,1.4-0.2,1.9
		h1.3c-0.1-0.4-0.2-1.2-0.2-1.9V5c0-0.5,0.1-1.2,0.2-1.5h-1.4c0.1,0.3,0.2,0.9,0.2,1.5v2.8h-4.9V5c0-0.5,0.1-1.2,0.2-1.5h-1.4
		c0.1,0.3,0.2,0.9,0.2,1.5v5.8c0,0.6-0.1,1.4-0.2,1.9h1.3c-0.1-0.4-0.2-1.2-0.2-1.9V8.4H106.3L106.3,8.4z"/>
	<path fill="#CB983E" stroke="#CB983E" stroke-width="0.35" stroke-miterlimit="3.8637" d="M120.4,11.2c-0.4,0.5-1.3,1.2-2.9,1.2
		c-2.4,0-3.5-2.1-3.5-4.6c0-2.3,1.7-3.9,3.5-3.9c2,0,2.7,1.3,3.3,2.3l0.7-0.7c-0.9-1.2-1.9-2.2-4-2.2c-1.9,0-4.7,1.6-4.7,4.5
		c0,3.7,2.7,5.1,4.8,5.1c1.7,0,3.2-0.6,4-1.5V7.9h-2.8v0.4h1.6L120.4,11.2L120.4,11.2z"/>
	<path fill="#CB983E" stroke="#CB983E" stroke-width="0.35" stroke-miterlimit="3.8637" d="M126.6,8.3l-1.2,0l1.4-3.7l1.3,3.7
		L126.6,8.3l0,0.6l1.7,0l1.1,3c0.1,0.3,0.2,0.6,0.2,0.8h1.4c-0.1-0.2-0.3-0.5-0.4-0.8l-3.1-8.3h-1.2l-3.1,8.4
		c-0.1,0.3-0.2,0.5-0.4,0.8h1c0-0.3,0-0.6,0.1-0.9l1.1-3l1.4,0L126.6,8.3L126.6,8.3z"/>
	<path fill="#CB983E" stroke="#CB983E" stroke-width="0.35" stroke-miterlimit="3.8637" d="M169,3.5h-1.4c0.1,0.3,0.2,0.9,0.2,1.5
		v5.8c0,0.6-0.1,1.4-0.2,1.9h1.3c-0.1-0.4-0.2-1.2-0.2-1.9V5C168.8,4.5,168.9,3.9,169,3.5L169,3.5z"/>
	<path fill="#CB983E" stroke="#CB983E" stroke-width="0.35" stroke-miterlimit="3.8637" d="M189.1,7.3V4.1h1.8
		c1.3,0,1.9,0.8,1.9,1.8c0,1-0.9,1.9-2.1,1.9h-1.6V7.3h-1.2v3.5c0,0.6-0.1,1.4-0.2,1.9h1.4V8.4h1.1c0.3,0,0.6,0.2,0.8,0.5
		c0.7,0.8,1.5,2.4,2,3.1c0.1,0.2,0.3,0.5,0.3,0.7h1.5c-0.2-0.2-0.4-0.4-0.6-0.7c-0.6-1.1-1.6-2.7-2.5-3.7c0.9-0.2,2.2-0.6,2.2-2.4
		c0-1.7-1.5-2.4-2.8-2.4h-3.5c0.1,0.3,0.2,0.9,0.2,1.5v2.3H189.1L189.1,7.3z"/>
	<path fill="#CB983E" stroke="#CB983E" stroke-width="0.35" stroke-miterlimit="3.8637" d="M196.5,9.7c0.2,1.5,0.8,2.7,2.7,2.7
		c1.7,0,2.3-0.9,2.3-1.8c0-0.8-0.3-1.4-2.6-1.9c-2.1-0.5-3-1.2-3-2.8c0-1.6,1.5-2.5,3.2-2.5c1.7,0,3.1,0.7,3.3,2.5l-1,0.4
		c-0.1-1.2-0.8-2.3-2.3-2.3c-1.4,0-2.3,1-2.3,1.8c0,0.9,1,1.4,2.2,1.7c1.7,0.3,3.6,0.8,3.6,2.5c0,1.7-1,3-3.2,3
		c-2,0-3.5-0.9-3.8-2.7L196.5,9.7L196.5,9.7z"/>
	<path fill="#CB983E" stroke="#CB983E" stroke-width="0.35" stroke-miterlimit="3.8637" d="M205.6,3.5h-1.4c0.1,0.3,0.2,0.9,0.2,1.5
		v5.8c0,0.6-0.1,1.4-0.2,1.9h1.3c-0.1-0.4-0.2-1.2-0.2-1.9V5C205.5,4.5,205.6,3.9,205.6,3.5L205.6,3.5z"/>
	<path fill="#CB983E" stroke="#CB983E" stroke-width="0.35" stroke-miterlimit="3.8637" d="M215.5,4.4l2.4,3.4l2.7-3.6
		c0.1-0.2,0.3-0.5,0.3-0.7h1.1c-0.3,0.4-0.6,0.7-0.7,0.9l-3.1,4.2v3.1c0,0.3,0.1,0.6,0.2,0.9h-1.4c0.1-0.3,0.2-0.6,0.2-0.9V8.6
		l-3.2-4.5H211v7.8c0,0.3,0.1,0.5,0.1,0.8h-1.6c0.1-0.3,0.1-0.5,0.1-0.8V4.1h-2.2c-0.4,0-0.8,0.1-1.2,0.2V3.5h8.7
		C215,3.8,215.2,4,215.5,4.4L215.5,4.4z"/>
	<path fill="#CB983E" stroke="#CB983E" stroke-width="0.35" stroke-miterlimit="3.8637" d="M179.9,3.5c0.1,0.3,0.2,0.9,0.2,1.5v5.8
		c0,0.6-0.1,1.4-0.2,1.9h5.9v-0.8c-0.4,0.1-0.9,0.3-1.4,0.3h-3.1V8.4h3.6c0.2,0,0.6,0,0.8,0.1V7.7c-0.2,0-0.5,0.1-0.8,0.1h-3.6V4.1
		h3c0.6,0,1.2,0.1,1.6,0.3V3.5H179.9L179.9,3.5z"/>
	<path fill="#CB983E" stroke="#CB983E" stroke-width="0.35" stroke-miterlimit="3.8637" d="M146.7,1.7c0.1,0.6,0.2,1.1,0.2,1.7
		c0,0.6,0,5.6,0,5.6c0,1.9,1,4,4.3,4c3.1,0,4-2.7,4-4V3.4c0-0.7,0.1-1.3,0.2-1.8h-1.3c0.1,0.5,0.2,1.1,0.2,1.7v5.3
		c0,1.4-0.7,3.5-3.1,3.5c-2.2,0-2.9-1.7-2.9-3.2V3.4c0-0.6,0.1-1.1,0.2-1.7H146.7L146.7,1.7z"/>
	<path fill="#CB983E" stroke="#CB983E" stroke-width="0.35" stroke-miterlimit="3.8637" d="M170.5,3.5c0.2,0.3,0.4,0.8,0.6,1.2
		l2.8,7.9h1.4l3-7.9c0.2-0.5,0.4-0.9,0.7-1.3h-1.3c-0.1,0.4-0.1,0.8-0.2,1.1l-2.7,7.2l-2.5-7c-0.2-0.4-0.2-0.8-0.3-1.2H170.5
		L170.5,3.5z"/>
	<path fill="#CB983E" stroke="#CB983E" stroke-width="0.35" stroke-miterlimit="3.8637" d="M139.4,12.7h1c-0.1-0.4-0.2-1.2-0.2-1.9
		V5c0-0.6,0.1-1.2,0.2-1.5h-1c0.1,0.3,0.2,0.9,0.2,1.5v6.2l-5.7-7.6h-1.2c0.1,0.3,0.2,0.9,0.2,1.5v5.8c0,0.6-0.1,1.4-0.2,1.9h1
		c-0.1-0.4-0.2-1.2-0.2-1.9v-6L139.4,12.7L139.4,12.7z"/>
	<path fill="#CB983E" stroke="#CB983E" stroke-width="0.35" stroke-miterlimit="3.8637" d="M164.5,12.7h1c-0.1-0.4-0.2-1.2-0.2-1.9
		V5c0-0.6,0.1-1.2,0.2-1.5h-1c0.1,0.3,0.2,0.9,0.2,1.5v6.2L159,3.5h-1.2c0.1,0.3,0.2,0.9,0.2,1.5v5.8c0,0.6-0.1,1.4-0.2,1.9h1
		c-0.1-0.4-0.2-1.2-0.2-1.9v-6L164.5,12.7L164.5,12.7z"/>
</g>
</svg>
